# xmcd CD database file
#
# Track frame offsets:
#	150
#	32380
#	99243
#	118730
#	143980
#	162829
#	175363
#	203962
#
# Disc length: 2966 seconds
#
# Revision: 0
# Processed by: cddbd v1.4PL0 Copyright (c) Steve Scherf et al.
# Submitted via: CDex 1.50Beta7
#
DISCID=660b9408
DTITLE=Oopapada Featuring Dr. Prof. Leonard King - We're Household Names Today, Baby!
DYEAR=2001
DGENRE=Jazz
TTITLE0=Imperative Unit Rising
TTITLE1=The Adventures of Professor Von Schieskopf
TTITLE2=Night Flower
TTITLE3=Next
TTITLE4=Crept Dema Wrongma
TTITLE5=Solar
TTITLE6=In Return
TTITLE7=Queen Ann Nzinga
EXTD=YEAR: 2001
EXTT0=
EXTT1=
EXTT2=
EXTT3=
EXTT4=
EXTT5=
EXTT6=
EXTT7=
PLAYORDER=
